<?xml version="1.0" encoding="UTF-8" standalone="no"?>
<!DOCTYPE svg PUBLIC "-//W3C//DTD SVG 1.1//EN" "http://www.w3.org/Graphics/SVG/1.1/DTD/svg11.dtd">
<svg xmlns="http://www.w3.org/2000/svg" version="1.1" viewBox="0.00 0.00 64.00 64.00">
<g stroke-width="2.00" fill="none" stroke-linecap="butt">
<path stroke="#189eba" vector-effect="non-scaling-stroke" d="
  M 31.52 16.71
  C 27.56 18.75 24.92 15.40 21.72 13.75"
/>
<path stroke="#97d8e5" vector-effect="non-scaling-stroke" d="
  M 21.72 13.75
  Q 22.33 12.53 21.65 11.56
  A 1.06 1.04 -18.5 0 0 20.73 11.11
  Q 15.50 11.33 13.09 15.88
  A 1.07 1.06 47.6 0 0 13.05 16.78
  Q 13.55 18.00 15.32 18.04"
/>
<path stroke="#189eba" vector-effect="non-scaling-stroke" d="
  M 15.32 18.04
  Q 14.45 22.95 9.16 23.13
  Q 8.63 23.15 8.47 23.65
  C 7.66 26.12 7.85 28.54 4.43 29.34"
/>
<path stroke="#80c5d4" vector-effect="non-scaling-stroke" d="
  M 21.72 13.75
  Q 17.27 14.23 15.32 18.04"
/>
<path stroke="#1cadcc" vector-effect="non-scaling-stroke" d="
  M 34.72 18.08
  L 31.77 21.90
  Q 31.46 22.30 31.10 21.94
  C 24.70 15.48 14.99 20.47 15.05 29.29
  Q 15.05 29.78 14.59 29.95
  L 8.80 32.03"
/>
<path stroke="#33c1dd" vector-effect="non-scaling-stroke" d="
  M 50.98 27.99
  C 51.02 33.40 53.80 32.97 55.40 36.53
  C 57.12 40.38 54.33 45.02 50.00 45.01
  C 45.04 44.99 35.94 43.01 34.80 49.99"
/>
</g>
<path fill="#2fb1cb" d="
  M 31.52 16.71
  C 27.56 18.75 24.92 15.40 21.72 13.75
  Q 22.33 12.53 21.65 11.56
  A 1.06 1.04 -18.5 0 0 20.73 11.11
  Q 15.50 11.33 13.09 15.88
  A 1.07 1.06 47.6 0 0 13.05 16.78
  Q 13.55 18.00 15.32 18.04
  Q 14.45 22.95 9.16 23.13
  Q 8.63 23.15 8.47 23.65
  C 7.66 26.12 7.85 28.54 4.43 29.34
  Q 0.11 20.25 9.71 17.89
  Q 10.15 17.78 10.28 17.35
  C 13.73 6.54 27.33 6.18 31.52 16.71
  Z"
/>
<path fill="#ffffff" d="
  M 21.72 13.75
  Q 17.27 14.23 15.32 18.04
  Q 13.55 18.00 13.05 16.78
  A 1.07 1.06 47.6 0 1 13.09 15.88
  Q 15.50 11.33 20.73 11.11
  A 1.06 1.04 -18.5 0 1 21.65 11.56
  Q 22.33 12.53 21.72 13.75
  Z"
/>
<path fill="#008aa9" d="
  M 21.72 13.75
  C 24.92 15.40 27.56 18.75 31.52 16.71
  L 34.72 18.08
  L 31.77 21.90
  Q 31.46 22.30 31.10 21.94
  C 24.70 15.48 14.99 20.47 15.05 29.29
  Q 15.05 29.78 14.59 29.95
  L 8.80 32.03
  L 4.43 29.34
  C 7.85 28.54 7.66 26.12 8.47 23.65
  Q 8.63 23.15 9.16 23.13
  Q 14.45 22.95 15.32 18.04
  Q 17.27 14.23 21.72 13.75
  Z"
/>
<path fill="#37d0ee" d="
  M 50.98 27.99
  C 51.02 33.40 53.80 32.97 55.40 36.53
  C 57.12 40.38 54.33 45.02 50.00 45.01
  C 45.04 44.99 35.94 43.01 34.80 49.99
  Q 25.22 50.02 15.75 50.00
  C 5.59 49.99 1.63 39.42 8.80 32.03
  L 14.59 29.95
  Q 15.05 29.78 15.05 29.29
  C 14.99 20.47 24.70 15.48 31.10 21.94
  Q 31.46 22.30 31.77 21.90
  L 34.72 18.08
  Q 40.95 14.04 46.49 17.73
  Q 51.63 21.16 50.98 27.99
  Z"
/>
<path fill="#2fb1cb" d="
  M 50.98 27.99
  C 62.51 30.50 64.95 44.89 53.94 49.18
  C 49.25 51.01 39.98 50.01 34.80 49.99
  C 35.94 43.01 45.04 44.99 50.00 45.01
  C 54.33 45.02 57.12 40.38 55.40 36.53
  C 53.80 32.97 51.02 33.40 50.98 27.99
  Z"
/>
<path fill="#000000" fill-opacity="0.302" d="
  M 35.17 64.00
  L 29.70 64.00
  Q 22.91 63.77 16.28 62.68
  Q 13.47 62.22 15.22 60.16
  A 2.27 2.23 -73.9 0 1 16.57 59.40
  Q 31.58 56.99 46.45 59.21
  Q 48.50 59.51 48.70 59.74
  Q 50.96 62.27 47.69 62.63
  L 35.17 64.00
  Z"
/>
</svg>
