<?xml version="1.0" encoding="UTF-8" standalone="no"?>
<!DOCTYPE svg PUBLIC "-//W3C//DTD SVG 1.1//EN" "http://www.w3.org/Graphics/SVG/1.1/DTD/svg11.dtd">
<svg xmlns="http://www.w3.org/2000/svg" version="1.1" viewBox="0.00 0.00 64.00 64.00">
<g stroke-width="2.00" fill="none" stroke-linecap="butt">
<path stroke="#33c1dd" vector-effect="non-scaling-stroke" d="
  M 46.58 8.39
  L 44.90 11.13
  Q 44.63 11.56 44.68 12.07
  Q 44.98 15.13 44.88 18.18
  C 44.70 23.42 51.27 22.20 53.61 25.34
  Q 56.77 29.58 52.60 33.98"
/>
<path stroke="#1cadcc" vector-effect="non-scaling-stroke" d="
  M 52.60 33.98
  Q 46.48 34.59 46.97 39.87"
/>
<path stroke="#1cadcc" vector-effect="non-scaling-stroke" d="
  M 42.02 40.06
  L 41.75 35.18
  A 1.56 1.56 0.0 0 0 39.70 33.78
  Q 33.97 35.67 33.98 39.93"
/>
<path stroke="#1cadcc" vector-effect="non-scaling-stroke" d="
  M 28.47 39.95
  L 28.71 34.83
  A 0.85 0.85 0.0 0 0 27.62 33.97
  Q 21.93 35.65 23.41 39.90"
/>
<path stroke="#1cadcc" vector-effect="non-scaling-stroke" d="
  M 18.07 40.09
  L 17.76 35.26
  A 1.65 1.64 79.2 0 0 15.62 33.80
  Q 11.40 35.13 9.61 38.94"
/>
<path stroke="#55d7f1" vector-effect="non-scaling-stroke" d="
  M 5.23 35.12
  Q 9.10 32.97 9.30 28.39
  A 1.56 1.49 -26.6 0 1 9.60 27.55
  Q 11.72 24.74 15.26 24.85
  A 1.47 1.44 -57.6 0 0 15.98 24.68
  C 19.24 22.85 19.05 20.13 19.19 16.82"
/>
<path stroke="#9be8f7" vector-effect="non-scaling-stroke" d="
  M 19.19 16.82
  Q 20.79 14.40 25.25 13.35"
/>
<path stroke="#55d7f1" vector-effect="non-scaling-stroke" d="
  M 25.25 13.35
  Q 26.15 13.38 28.77 10.66"
/>
<path stroke="#b9eff9" vector-effect="non-scaling-stroke" d="
  M 25.25 13.35
  Q 23.09 7.99 17.31 14.43
  A 1.37 1.37 0.0 0 0 17.43 16.38
  Q 18.42 17.25 19.19 16.82"
/>
<path stroke="#189eba" vector-effect="non-scaling-stroke" d="
  M 53.04 39.23
  L 52.60 33.98"
/>
</g>
<path fill="#37d0ee" d="
  M 46.58 8.39
  L 44.90 11.13
  Q 44.63 11.56 44.68 12.07
  Q 44.98 15.13 44.88 18.18
  C 44.70 23.42 51.27 22.20 53.61 25.34
  Q 56.77 29.58 52.60 33.98
  Q 46.48 34.59 46.97 39.87
  L 42.02 40.06
  L 41.75 35.18
  A 1.56 1.56 0.0 0 0 39.70 33.78
  Q 33.97 35.67 33.98 39.93
  L 28.47 39.95
  L 28.71 34.83
  A 0.85 0.85 0.0 0 0 27.62 33.97
  Q 21.93 35.65 23.41 39.90
  L 18.07 40.09
  L 17.76 35.26
  A 1.65 1.64 79.2 0 0 15.62 33.80
  Q 11.40 35.13 9.61 38.94
  Q 7.26 37.71 5.23 35.12
  Q 9.10 32.97 9.30 28.39
  A 1.56 1.49 -26.6 0 1 9.60 27.55
  Q 11.72 24.74 15.26 24.85
  A 1.47 1.44 -57.6 0 0 15.98 24.68
  C 19.24 22.85 19.05 20.13 19.19 16.82
  Q 20.79 14.40 25.25 13.35
  Q 26.15 13.38 28.77 10.66
  L 30.27 11.82
  Q 30.68 12.13 30.96 11.70
  Q 36.84 2.33 46.58 8.39
  Z"
/>
<path fill="#2fb1cb" d="
  M 46.58 8.39
  Q 50.54 12.32 49.83 17.55
  A 0.17 0.16 12.2 0 0 49.95 17.73
  Q 57.08 19.87 59.19 25.27
  C 61.46 31.05 58.49 36.59 53.04 39.23
  L 52.60 33.98
  Q 56.77 29.58 53.61 25.34
  C 51.27 22.20 44.70 23.42 44.88 18.18
  Q 44.98 15.13 44.68 12.07
  Q 44.63 11.56 44.90 11.13
  L 46.58 8.39
  Z"
/>
<path fill="#73def3" d="
  M 28.77 10.66
  Q 26.15 13.38 25.25 13.35
  Q 23.09 7.99 17.31 14.43
  A 1.37 1.37 0.0 0 0 17.43 16.38
  Q 18.42 17.25 19.19 16.82
  C 19.05 20.13 19.24 22.85 15.98 24.68
  A 1.47 1.44 -57.6 0 1 15.26 24.85
  Q 11.72 24.74 9.60 27.55
  A 1.56 1.49 -26.6 0 0 9.30 28.39
  Q 9.10 32.97 5.23 35.12
  Q 0.95 22.54 13.60 19.86
  Q 14.02 19.77 14.02 19.35
  C 14.01 11.36 21.60 6.06 28.77 10.66
  Z"
/>
<path fill="#ffffff" d="
  M 25.25 13.35
  Q 20.79 14.40 19.19 16.82
  Q 18.42 17.25 17.43 16.38
  A 1.37 1.37 0.0 0 1 17.31 14.43
  Q 23.09 7.99 25.25 13.35
  Z"
/>
<path fill="#008aa9" d="
  M 18.07 40.09
  Q 13.28 46.53 9.61 38.94
  Q 11.40 35.13 15.62 33.80
  A 1.65 1.64 79.2 0 1 17.76 35.26
  L 18.07 40.09
  Z"
/>
<path fill="#008aa9" d="
  M 42.02 40.06
  Q 37.98 46.10 33.98 39.93
  Q 33.97 35.67 39.70 33.78
  A 1.56 1.56 0.0 0 1 41.75 35.18
  L 42.02 40.06
  Z"
/>
<path fill="#008aa9" d="
  M 28.47 39.95
  Q 25.98 41.87 23.41 39.90
  Q 21.93 35.65 27.62 33.97
  A 0.85 0.85 0.0 0 1 28.71 34.83
  L 28.47 39.95
  Z"
/>
<path fill="#008aa9" d="
  M 52.60 33.98
  L 53.04 39.23
  Q 50.82 42.08 46.97 39.87
  Q 46.48 34.59 52.60 33.98
  Z"
/>
<path fill="#008aa9" d="
  M 22.04 49.29
  C 22.06 46.22 25.55 44.18 28.22 43.74
  A 1.18 1.17 -11.1 0 1 29.55 44.63
  C 31.88 54.59 22.00 54.73 22.04 49.29
  Z"
/>
<path fill="#008aa9" d="
  M 52.27 43.70
  A 1.08 1.07 -14.0 0 1 53.48 44.42
  C 57.10 55.17 44.62 54.44 46.05 48.36
  C 46.61 45.98 50.14 44.08 52.27 43.70
  Z"
/>
<path fill="#008aa9" d="
  M 11.05 50.37
  C 10.91 47.90 13.66 46.31 15.78 46.04
  Q 16.25 45.98 16.43 46.42
  C 19.35 53.43 11.29 54.70 11.05 50.37
  Z"
/>
<path fill="#008aa9" d="
  M 37.02 52.85
  C 32.44 50.17 36.45 47.17 39.26 46.02
  Q 40.25 45.62 40.62 46.63
  Q 41.76 49.72 39.98 52.22
  A 2.24 2.24 0.0 0 1 37.02 52.85
  Z"
/>
<path fill="#000000" fill-opacity="0.302" d="
  M 19.09 63.06
  Q 15.14 62.87 10.92 62.09
  A 1.02 1.01 41.3 0 1 10.79 60.13
  C 21.26 56.79 36.21 58.01 47.16 58.72
  C 49.57 58.88 51.17 59.60 53.28 60.59
  A 0.59 0.58 -35.4 0 1 53.09 61.70
  Q 52.23 61.79 51.56 62.36
  Q 51.16 62.69 50.64 62.75
  Q 35.10 64.35 19.51 63.38
  Q 19.29 63.36 19.24 63.23
  Q 19.23 63.19 19.21 63.15
  Q 19.18 63.06 19.09 63.06
  Z"
/>
</svg>
