<?xml version="1.0" encoding="UTF-8" standalone="no"?>
<!DOCTYPE svg PUBLIC "-//W3C//DTD SVG 1.1//EN" "http://www.w3.org/Graphics/SVG/1.1/DTD/svg11.dtd">
<svg xmlns="http://www.w3.org/2000/svg" version="1.1" viewBox="0.00 0.00 64.00 64.00">
<g stroke-width="2.00" fill="none" stroke-linecap="butt">
<path stroke="#ffba15" vector-effect="non-scaling-stroke" d="
  M 21.11 33.86
  Q 22.94 37.99 26.98 39.69"
/>
<path stroke="#ecad15" vector-effect="non-scaling-stroke" d="
  M 26.98 39.69
  C 37.31 44.80 46.27 34.55 42.93 24.15"
/>
<path stroke="#ffba15" vector-effect="non-scaling-stroke" d="
  M 42.93 24.15
  Q 40.91 19.97 36.90 18.17"
/>
<path stroke="#ffc73b" vector-effect="non-scaling-stroke" d="
  M 36.90 18.17
  C 26.43 14.43 17.08 23.29 21.11 33.86"
/>
<path stroke="#ffb326" vector-effect="non-scaling-stroke" d="
  M 36.90 18.17
  Q 35.38 21.58 33.61 21.24"
/>
<path stroke="#ffe0a6" vector-effect="non-scaling-stroke" d="
  M 33.61 21.24
  Q 29.35 19.49 25.76 23.44
  Q 25.42 23.81 25.65 24.27
  L 26.19 25.30"
/>
<path stroke="#ffb326" vector-effect="non-scaling-stroke" d="
  M 26.19 25.30
  C 24.39 28.61 25.54 32.40 21.11 33.86"
/>
<path stroke="#ec9900" vector-effect="non-scaling-stroke" d="
  M 42.93 24.15
  C 38.04 25.68 39.83 29.93 37.59 33.23
  C 34.92 37.15 30.20 34.53 26.98 39.69"
/>
<path stroke="#ffd280" vector-effect="non-scaling-stroke" d="
  M 26.19 25.30
  L 26.98 25.52
  A 1.00 1.00 0.0 0 0 27.94 25.27
  Q 29.63 23.61 31.98 23.49
  Q 32.54 23.46 32.89 23.04
  Q 33.47 22.36 33.61 21.24"
/>
</g>
<path fill="#ffce29" d="
  M 51.29 23.02
  C 57.61 27.02 61.33 29.11 52.28 34.28
  C 50.06 35.56 49.52 37.18 50.08 39.75
  C 52.22 49.61 49.33 48.73 41.47 46.75
  C 38.44 45.99 35.51 52.11 33.80 54.15
  A 2.34 2.33 -46.6 0 1 30.32 54.25
  C 27.79 51.57 26.22 45.87 21.53 47.04
  Q 18.23 47.86 14.86 48.02
  A 1.15 1.12 -22.5 0 1 13.96 47.66
  C 10.57 43.96 17.42 37.48 11.94 34.29
  Q 8.55 32.32 6.66 30.66
  A 1.30 1.29 19.3 0 1 6.22 29.76
  C 5.87 23.96 15.41 25.61 13.90 18.11
  C 13.36 15.44 11.23 9.59 16.25 9.98
  C 18.84 10.18 23.98 12.99 26.33 9.11
  Q 28.15 6.11 30.29 3.81
  A 2.36 2.36 0.0 0 1 33.76 3.83
  Q 35.85 6.13 37.58 9.17
  C 39.77 13.01 45.37 10.02 48.26 9.93
  C 52.92 9.78 50.22 17.20 49.80 19.68
  A 3.32 3.31 21.0 0 0 51.29 23.02
  Z
  M 21.11 33.86
  Q 22.94 37.99 26.98 39.69
  C 37.31 44.80 46.27 34.55 42.93 24.15
  Q 40.91 19.97 36.90 18.17
  C 26.43 14.43 17.08 23.29 21.11 33.86
  Z"
/>
<path fill="#ffc04c" d="
  M 36.90 18.17
  Q 35.38 21.58 33.61 21.24
  Q 29.35 19.49 25.76 23.44
  Q 25.42 23.81 25.65 24.27
  L 26.19 25.30
  C 24.39 28.61 25.54 32.40 21.11 33.86
  C 17.08 23.29 26.43 14.43 36.90 18.17
  Z"
/>
<path fill="#ffa500" d="
  M 42.93 24.15
  C 38.04 25.68 39.83 29.93 37.59 33.23
  C 34.92 37.15 30.20 34.53 26.98 39.69
  Q 22.94 37.99 21.11 33.86
  C 25.54 32.40 24.39 28.61 26.19 25.30
  L 26.98 25.52
  A 1.00 1.00 0.0 0 0 27.94 25.27
  Q 29.63 23.61 31.98 23.49
  Q 32.54 23.46 32.89 23.04
  Q 33.47 22.36 33.61 21.24
  Q 35.38 21.58 36.90 18.17
  Q 40.91 19.97 42.93 24.15
  Z"
/>
<path fill="#ffffff" d="
  M 33.61 21.24
  Q 33.47 22.36 32.89 23.04
  Q 32.54 23.46 31.98 23.49
  Q 29.63 23.61 27.94 25.27
  A 1.00 1.00 0.0 0 1 26.98 25.52
  L 26.19 25.30
  L 25.65 24.27
  Q 25.42 23.81 25.76 23.44
  Q 29.35 19.49 33.61 21.24
  Z"
/>
<path fill="#d98c00" d="
  M 42.93 24.15
  C 46.27 34.55 37.31 44.80 26.98 39.69
  C 30.20 34.53 34.92 37.15 37.59 33.23
  C 39.83 29.93 38.04 25.68 42.93 24.15
  Z"
/>
<ellipse fill="#000000" fill-opacity="0.302" cx="31.84" cy="61.00" rx="17.86" ry="2.86"/>
</svg>
